<svg xmlns="http://www.w3.org/2000/svg" width="170" height="154" viewBox="0 0 170 154">
  <g fill="none" fill-rule="evenodd" transform="translate(1)">
    <path fill="#5CA8F1" stroke="#0F7DE3" stroke-width="3" d="M43.7269029,102.5 L16.095324,137.5 L152.904676,137.5 L125.273097,102.5 L43.7269029,102.5 Z"/>
    <path fill="#C0DEFA" stroke="#0F7DE3" stroke-width="3" d="M43.7269029,89.5 L16.095324,124.5 L152.904676,124.5 L125.273097,89.5 L43.7269029,89.5 Z"/>
    <path fill="#FDFDFF" stroke="#0F7DE3" stroke-width="3" d="M43.7269029,75.5 L16.095324,110.5 L152.904676,110.5 L125.273097,75.5 L43.7269029,75.5 Z"/>
    <circle cx="6" cy="101" r="3" fill="#CADEF7"/>
    <circle cx="35" cy="67" r="3" fill="#CADEF7"/>
    <circle cx="132" cy="67" r="3" fill="#CADEF7"/>
    <circle cx="163" cy="101" r="3" fill="#CADEF7"/>
    <circle cx="6" cy="147" r="3" fill="#CADEF7"/>
    <circle cx="163" cy="147" r="3" fill="#CADEF7"/>
    <polygon stroke="#CADEF7" points="6 101 6 147 163 147 163 101 132 67 35 67"/>

<g>
    <ellipse cx="84.5" cy="40" stroke="#CADEF7" rx="66.5" ry="15"/>
<animateTransform attributeName="transform" attributeType="XML" dur="6s" keyTimes="0;0.8;1" repeatCount="indefinite" type="translate" values="0 0;0 16;0 0;" calcMode="linear"></animateTransform>
    </g>
    <g>
    <path stroke="#CADEF7" stroke-dasharray="8" d="M84.5,63 C131.168061,63 169,52.7025492 169,40 C169,27.2974508 131.168061,17 84.5,17 C37.8319386,17 0,27.2974508 0,40 C0,52.7025492 37.8319386,63 84.5,63 Z"/><animateTransform attributeName="transform" attributeType="XML" dur="6s" keyTimes="0;0.8;1" repeatCount="indefinite" type="translate" values="0 16;0 0;0 16;" calcMode="linear"></animateTransform></g>
    <path stroke="#CADEF7" d="M6,101 L163,101"/>
    <rect width="23" height="12" x="73.5" y="141.5" fill="#FDFDFF" stroke="#CADEF7"/>
    <path stroke="#CADEF7" d="M77 144.5L89.5852604 144.5M77 147.5L92.58526 147.5"/>
    <path stroke="#CADEF7" stroke-dasharray="6" stroke-linecap="round" stroke-width="2" d="M45,83 L65.58526,83"/>
    <path stroke="#CADEF7" stroke-linecap="round" stroke-width="2" d="M40,89 L64.58526,89"/>
    <path stroke="#CADEF7" stroke-width="2" d="M115,90 C119.970563,90 123.672323,88.0852814 123.672323,85.6 C123.672323,83.1147186 118.970563,80.7405621 114,80.7405621 C109.029437,80.7405621 105,83.0147186 105,85.5 C105,87.9852814 110.029437,90 115,90 Z"/>
    <path stroke="#CADEF7" stroke-linecap="round" stroke-width="2" d="M35 96L64.58526 96M104 96.5L133.58526 96.5M28 104.5L138.58526 104.5"/>
    <path stroke="#CADEF7" d="M77,150.5 L85.58526,150.5"/>
    <path fill="#187FE5" fill-rule="nonzero" d="M90.3521631,94.260476 C90.3190962,92.9490446 90.3521631,91.6818639 90.3025627,90.4629568 L89.6908239,85 L84.7307798,85 L80.2336732,90.4629568 C79.2912648,91.7019779 78.3240562,92.9852497 77.4064481,94.260476 L77.2659135,94.260476 L77.6461835,90.4629568 L78.0595205,85 L72,85 L72.1736015,97 L79.4813998,97 L83.5238358,91.7663426 C84.2182419,90.8491452 84.8630477,89.8716058 85.4913199,88.9704995 L85.6566547,88.9704995 C85.5574538,89.8716058 85.5409204,90.8451224 85.6070543,91.7663426 L85.9377239,97 L93.3860568,97 L102,85 L96.37035,85 L92.807385,90.4629568 C92.0633783,91.7019779 91.2697713,92.9490446 90.5009645,94.260476 L90.3521631,94.260476 Z"/>
    <path stroke="#0F7DE3" stroke-width="2" d="M23 117.175646L146.369932 117.175646M21 130.175646L147.369932 130.175646"/>
    <g>
    <path fill="#0F7DE3" fill-rule="nonzero" d="M47.131881,16.1503899 C48.087218,14.8366697 48.2677065,13.1121089 47.6055117,11.6287201 C46.9429132,10.1457353 45.5389796,9.12974321 43.9234666,8.96492222 C42.3079536,8.80010124 40.7279731,9.51149766 39.779904,10.8308735 C39.7738473,10.838953 39.7685983,10.8478403 39.7625416,10.8563237 L28.4054977,5.62770133 C28.8468263,3.8405248 28.165654,1.96366621 26.6809649,0.876574855 C25.1962758,-0.210920345 23.2024235,-0.29333094 21.6329411,0.667316895 C20.0634589,1.62836868 19.2296587,3.44220738 19.5215897,5.25968191 C19.540971,5.37925792 19.5660053,5.49762198 19.5938659,5.61356225 L8.33857382,10.7949198 C7.27502448,9.35758398 5.46731347,8.67810135 3.72057295,9.05904791 C1.97423619,9.43999447 0.613102908,10.8102709 0.243646659,12.5598779 C-0.126213341,14.309889 0.564245778,16.1140323 2.00734587,17.1692098 C2.50399199,17.5174345 3.0608008,17.7715335 3.64910429,17.9185797 L3.64910429,32.336376 C2.52539217,32.5678525 1.5272547,33.2073416 0.847293737,34.1316318 C-0.607515873,36.1692717 -0.142768184,38.9999104 1.88742404,40.4643126 C3.91761627,41.9287147 6.74890264,41.475861 8.22147846,39.4515523 C8.24287863,39.4216583 8.26347129,39.3913604 8.28406386,39.3614663 L19.5571221,44.5504994 C19.1872621,46.3566627 19.9463634,48.207263 21.4778907,49.2329504 C23.0090142,50.2586379 25.0085193,50.2554061 26.5364126,49.224871 C28.0647097,48.1947399 28.8177543,46.3417157 28.4422414,44.5367644 L39.709243,39.3497511 C40.5527338,40.5867164 41.9510145,41.3284108 43.447817,41.3324506 C43.6921022,41.3320465 43.9363874,41.3126558 44.1774426,41.2734705 C45.989595,40.982206 47.4476348,39.6272806 47.871601,37.840508 C48.2955672,36.0541394 47.6018777,34.1877841 46.1139584,33.112812 C45.5644175,32.7205542 44.9361401,32.4523161 44.272734,32.3266806 L44.272734,17.9541293 C45.4214804,17.7420435 46.4454596,17.0960907 47.131881,16.1503899 L47.131881,16.1503899 Z M41.1204446,11.8000047 C41.5670224,11.1782903 42.243753,10.7613902 42.9996241,10.6418142 C43.1526557,10.6171717 43.3081101,10.6046486 43.4631605,10.6046486 C44.7956255,10.6070724 45.9524475,11.5220712 46.2625485,12.8184207 C46.5726494,14.11477 45.9548701,15.4547484 44.7681688,16.0603039 C43.5810634,16.6658595 42.1343295,16.3790386 41.2678233,15.3670863 C40.4009136,14.35473 40.3399432,12.8802285 41.1204446,11.8000047 L41.1204446,11.8000047 Z M21.6648396,2.84877107 C22.4707791,1.73340166 23.9526418,1.34275974 25.20314,1.9164014 C26.454042,2.4896391 27.1259274,3.86718697 26.8077509,5.20676142 C26.4895744,6.54593193 25.270167,7.47385787 23.8953053,7.42295733 C22.5204437,7.37205668 21.3729086,6.35646862 21.1544651,4.99709941 C21.0329281,4.24166996 21.2166468,3.46886965 21.6648396,2.84877107 L21.6648396,2.84877107 Z M20.2693853,7.12442126 C21.1088383,8.3343204 22.4824886,9.06227969 23.9546606,9.07722677 C25.4268326,9.09176969 26.815019,8.39208857 27.6786985,7.19915623 C27.6940421,7.17855359 27.7077705,7.1559311 27.7227103,7.13492461 L39.0648144,12.3562755 C38.8774618,13.0878707 38.8750391,13.8546114 39.0571427,14.5874184 L27.7198839,19.8410872 C26.878412,18.6364397 25.5063768,17.913732 24.037435,17.9020168 C22.568897,17.8898976 21.1851522,18.5903868 20.3247027,19.7812992 C20.3073403,19.8051335 20.2919968,19.829372 20.2754419,19.8536103 L9.07102588,14.6609415 C9.27695225,13.8816776 9.27291442,13.0620164 9.05931626,12.2847722 L20.2693853,7.12442126 Z M22.3120946,24.7792531 C21.0212185,23.8456715 20.7313065,22.0419321 21.6644358,20.7504304 C22.5975651,19.4589287 24.4008345,19.1688761 25.6913067,20.1028617 C26.9821827,21.0368473 27.2720949,22.8405867 26.3385618,24.1316844 C25.8935991,24.7562266 25.2172721,25.1763585 24.4605936,25.2979544 C23.703915,25.4195503 22.9298738,25.2329148 22.3120946,24.7792531 Z M2.35176788,11.8004087 C2.79874937,11.1786942 3.47507636,10.7617941 4.23094745,10.6422181 C4.38438282,10.6175758 4.5394333,10.6050526 4.69488753,10.6050526 C6.02694885,10.6074764 7.18417451,11.5224753 7.49427547,12.8188246 C7.80397268,14.1151739 7.18619337,15.4551523 5.99949199,16.0607079 C4.8127905,16.6662634 3.36565268,16.3794425 2.49914656,15.3674902 C1.63223679,14.3551339 1.57167015,12.8806324 2.35176788,11.8004087 Z M6.88336046,38.4820171 C6.07782473,39.5973865 4.59676962,39.9884324 3.34586762,39.4155986 C2.09536927,38.842361 1.4230801,37.4656211 1.74085286,36.1264506 C2.05822186,34.78728 3.27722543,33.8593541 4.65168334,33.9094468 C6.02654499,33.9599434 7.17408011,34.9747235 7.39292735,36.3332847 C7.51406064,37.0891182 7.33034195,37.8615146 6.88255285,38.4820171 L6.88336046,38.4820171 Z M8.96119846,37.8514152 C9.39041364,36.0569672 8.6866299,34.1813206 7.18296316,33.113216 C6.63019207,32.7003556 5.98455215,32.4288858 5.30297608,32.3234488 L5.30297608,17.9779638 C6.52480622,17.8212222 7.62590692,17.1607264 8.33897757,16.1556415 L19.5841752,21.3620455 C19.1545562,23.1597253 19.8526871,25.0394117 21.3519122,26.1200394 C21.8998379,26.5090654 22.525289,26.7756876 23.1854648,26.9017272 L23.1854648,40.9991728 C22.0415638,41.2132785 21.0228337,41.8572115 20.3384312,42.7988725 C20.2867477,42.8699717 20.231834,42.9422829 20.1849958,43.015402 L8.96119846,37.8514152 Z M26.3381579,47.1488537 C25.4050287,48.4403555 23.602163,48.730408 22.311287,47.7968264 C21.020411,46.8632449 20.7304989,45.0591014 21.664032,43.7680037 C22.5971613,42.4765021 24.4004308,42.1868535 25.690903,43.120435 C26.9797601,44.0552286 27.2692684,45.8573521 26.3381579,47.1488537 L26.3381579,47.1488537 Z M27.8163867,43.0032829 C27.5159764,42.5269987 27.1283502,42.1117145 26.6736969,41.7796487 C26.1257711,41.3877948 25.5003201,41.1187488 24.8393366,40.9898815 L24.8393366,26.9053629 C25.980815,26.6779262 26.9971225,26.0352051 27.692427,25.1012196 C28.4729285,24.01736 28.7353838,22.6442559 28.4091317,21.3487144 L39.7447754,16.0942376 C40.0330724,16.5091179 40.3892039,16.8726936 40.7982304,17.1696138 C41.3421184,17.5578318 41.962724,17.8252619 42.6184583,17.9541293 L42.6184583,32.3327401 C41.4721347,32.5359386 40.4521932,33.1822954 39.7782889,34.1316318 C39.0062667,35.2001405 38.7381586,36.552238 39.0434143,37.8344484 L27.8163867,43.0032829 Z M46.3041375,36.3332847 C46.5217735,37.6910379 45.7509626,39.0136456 44.4625093,39.4923536 C43.1740559,39.9710615 41.7269181,39.4729628 41.0061756,38.3022492 C40.2854332,37.1315354 40.4913597,35.6142128 41.4979764,34.6782074 C42.504997,33.7426059 44.0320827,33.6480762 45.1465081,34.4531945 C45.7679212,34.9003925 46.1846194,35.5770473 46.3041375,36.3332847 L46.3041375,36.3332847 Z" transform="translate(61)"/><animateTransform attributeName="transform" attributeType="XML" dur="6s" keyTimes="0;0.8;1" repeatCount="indefinite" type="translate" values="0 0;0 16;0 0;" calcMode="linear"></animateTransform></g>
  </g>
</svg>
