<svg xmlns="http://www.w3.org/2000/svg" width="36" height="36" viewBox="0 0 36 36">
  <g fill="none" fill-rule="evenodd">
    <circle cx="18" cy="18" r="18" fill="#000000"/>
    <path fill="#FFFFFF" d="M17.5725,14.1375 C17.2424983,14.6625026 16.8187526,15.119998 16.30125,15.51 C15.7837474,15.9000019 15.1425038,16.095 14.3775,16.095 C13.6874965,16.095 13.1287521,15.8812521 12.70125,15.45375 C12.2737479,15.0262479 12.06,14.4450037 12.06,13.71 C12.06,13.1399971 12.1987486,12.6037525 12.47625,12.10125 C12.7537514,11.5987475 13.1062479,11.1637518 13.53375,10.79625 C13.9612521,10.4287482 14.4337474,10.1400011 14.95125,9.93 C15.4687526,9.71999895 15.9749975,9.615 16.47,9.615 C17.1450034,9.615 17.7974969,9.7049991 18.4275,9.885 C19.0575031,10.0650009 19.672497,10.2599989 20.2725,10.47 C20.8575029,10.6800011 21.4274972,10.8749991 21.9825,11.055 C22.5375028,11.2350009 23.0774974,11.325 23.6025,11.325 C24.2625033,11.325 24.7799981,11.2162511 25.155,10.99875 C25.5300019,10.7812489 25.8337488,10.5450013 26.06625,10.29 C26.2987512,10.0349987 26.4899993,9.79875109 26.64,9.58125 C26.7900008,9.36374891 26.9774989,9.255 27.2025,9.255 C27.3075005,9.255 27.4049995,9.28874966 27.495,9.35625 C27.5850005,9.42375034 27.63,9.52499932 27.63,9.66 C27.63,9.81000075 27.5437509,9.95249932 27.37125,10.0875 C27.1987491,10.2225007 26.9850013,10.3687492 26.73,10.52625 C26.4749987,10.6837508 26.1900016,10.8562491 25.875,11.04375 C25.5599984,11.2312509 25.2525015,11.4599987 24.9525,11.73 C22.6424884,13.8150104 20.3025118,15.8662399 17.9325,17.88375 C15.5624882,19.9012601 13.1400124,21.8849903 10.665,23.835 L10.71,23.88 C11.2500027,23.6399988 11.7937473,23.4075011 12.34125,23.1825 C12.8887527,22.9574989 13.4699969,22.845 14.085,22.845 C14.5950026,22.845 15.1049974,22.9274992 15.615,23.0925 C16.1250025,23.2575008 16.6274975,23.437499 17.1225,23.6325 C17.6325025,23.827501 18.1199977,24.0149991 18.585,24.195 C19.0500023,24.3750009 19.4999978,24.465 19.935,24.465 C20.4150024,24.465 20.8387482,24.4050006 21.20625,24.285 C21.5737518,24.1649994 21.9112485,24.0000011 22.21875,23.79 C22.5262515,23.579999 22.8187486,23.3362514 23.09625,23.05875 C23.3737514,22.7812486 23.6699984,22.4850016 23.985,22.17 C24.4050021,21.7499979 24.7799983,21.3225022 25.11,20.8875 C25.4400016,20.4524978 25.7849982,20.0175022 26.145,19.5825 L26.2575,19.6725 C25.8224978,20.2575029 25.305003,20.9062464 24.705,21.61875 C24.104997,22.3312536 23.4525035,23.0024968 22.7475,23.6325 C22.0424965,24.2625032 21.3037539,24.7912479 20.53125,25.21875 C19.7587461,25.6462521 18.975004,25.86 18.18,25.86 C17.5649969,25.86 16.9950026,25.7512511 16.47,25.53375 C15.9449974,25.3162489 15.4425024,25.0800013 14.9625,24.825 C14.4824976,24.5699987 14.0175022,24.3337511 13.5675,24.11625 C13.1174978,23.8987489 12.6600023,23.79 12.195,23.79 C11.8199981,23.79 11.4937514,23.8312496 11.21625,23.91375 C10.9387486,23.9962504 10.6912511,24.1087493 10.47375,24.25125 C10.2562489,24.3937507 10.046251,24.5737489 9.84375,24.79125 C9.64124899,25.0087511 9.42750112,25.2524986 9.2025,25.5225 C9.09749947,25.6125004 9.00375041,25.6912497 8.92125,25.75875 C8.83874959,25.8262503 8.7375006,25.86 8.6175,25.86 C8.54249962,25.86 8.47125034,25.8412502 8.40375,25.80375 C8.33624966,25.7662498 8.3025,25.7025004 8.3025,25.6125 C8.3025,25.4474992 8.36999933,25.3012506 8.505,25.17375 C8.64000067,25.0462494 8.81999887,24.9112507 9.045,24.76875 C9.27000113,24.6262493 9.52499857,24.4650009 9.81,24.285 C10.0950014,24.1049991 10.3799986,23.8800014 10.665,23.61 C11.7750055,22.5749948 12.9374939,21.5250053 14.1525,20.46 C15.3675061,19.3949947 16.5862439,18.3450052 17.80875,17.31 C19.0312561,16.2749948 20.242494,15.262505 21.4425,14.2725 C22.642506,13.2824951 23.7899945,12.3450044 24.885,11.46 L24.84,11.415 C24.2249969,11.7600017 23.6100031,12.0487488 22.995,12.28125 C22.3799969,12.5137512 21.7125036,12.63 20.9925,12.63 C20.4674974,12.63 19.9612524,12.5362509 19.47375,12.34875 C18.9862476,12.1612491 18.5025024,11.9625011 18.0225,11.7525 C17.5424976,11.542499 17.0625024,11.3512509 16.5825,11.17875 C16.1024976,11.0062491 15.6000026,10.92 15.075,10.92 C14.6549979,10.92 14.2762517,11.0024992 13.93875,11.1675 C13.6012483,11.3325008 13.3125012,11.5462487 13.0725,11.80875 C12.8324988,12.0712513 12.6487506,12.3712483 12.52125,12.70875 C12.3937494,13.0462517 12.33,13.3874983 12.33,13.7325 C12.33,13.9875013 12.3787495,14.2387488 12.47625,14.48625 C12.5737505,14.7337512 12.7124991,14.958749 12.8925,15.16125 C13.0725009,15.363751 13.2937487,15.5249994 13.55625,15.645 C13.8187513,15.7650006 14.1149984,15.825 14.445,15.825 C15.1800037,15.825 15.7687478,15.6525017 16.21125,15.3075 C16.6537522,14.9624983 17.0549982,14.5425025 17.415,14.0475 L17.5725,14.1375 Z"/>
  </g>
</svg>
