<svg xmlns="http://www.w3.org/2000/svg" width="220" height="105" viewBox="0 0 220 105">
  <path fill="none" stroke="#000" d="M688.203125,518.796875 L689.1875,487.859375 L681.664062,487.859375 L680.257812,498.617188 C680.070312,500.164062 679.707031,501.710938 679.167969,503.257812 C678.628906,504.804688 677.867188,506.199219 676.882812,507.441406 C675.898438,508.683594 674.644531,509.691406 673.121094,510.464844 C671.597656,511.238281 669.757812,511.625 667.601562,511.625 L667.601562,511.625 L639.195312,511.625 L639.195312,431.820312 C639.195312,429.710938 639.511719,428.011719 640.144531,426.722656 C640.777344,425.433594 641.632812,424.4375 642.710938,423.734375 C643.789062,423.03125 645.042969,422.574219 646.472656,422.363281 C647.902344,422.152344 649.414062,422.046875 651.007812,422.046875 L651.007812,422.046875 L652.90625,422.046875 L652.90625,416 L611,416 L611,422.046875 L612.828125,422.046875 C614.46875,422.046875 616.003906,422.164062 617.433594,422.398438 C618.863281,422.632812 620.117188,423.113281 621.195312,423.839844 C622.273438,424.566406 623.117188,425.609375 623.726562,426.96875 C624.335938,428.328125 624.640625,430.132812 624.640625,432.382812 L624.640625,432.382812 L624.640625,502.414062 C624.640625,504.664062 624.335938,506.46875 623.726562,507.828125 C623.117188,509.1875 622.273438,510.230469 621.195312,510.957031 C620.117188,511.683594 618.863281,512.164062 617.433594,512.398438 C616.003906,512.632812 614.46875,512.75 612.828125,512.75 L612.828125,512.75 L611,512.75 L611,518.796875 L688.203125,518.796875 Z M749.257812,518.796875 L749.84375,499.34375 L744.804688,499.34375 L744.21875,502.097656 C743.945312,503.386719 743.623047,504.626953 743.251953,505.818359 C742.880859,507.009766 742.392578,508.054688 741.787109,508.953125 C741.181641,509.851562 740.419922,510.574219 739.501953,511.121094 C738.583984,511.667969 737.421875,511.941406 736.015625,511.941406 L736.015625,511.941406 L714.21875,511.941406 L749.140625,459.382812 L749.140625,454.460938 L703.144531,454.460938 L701.972656,471.511719 L707.011719,471.511719 L707.128906,471.042969 C707.558594,469.441406 707.978516,468.035156 708.388672,466.824219 C708.798828,465.613281 709.326172,464.597656 709.970703,463.777344 C710.615234,462.957031 711.445312,462.341797 712.460938,461.931641 C713.476562,461.521484 714.765625,461.316406 716.328125,461.316406 L716.328125,461.316406 L735.078125,461.316406 L700.273438,513.992188 L700.273438,518.796875 L749.257812,518.796875 Z M791.035156,518.796875 L791.035156,513.757812 L790.683594,513.757812 C789.355469,513.757812 788.095703,513.669922 786.904297,513.494141 C785.712891,513.318359 784.667969,512.957031 783.769531,512.410156 C782.871094,511.863281 782.158203,511.052734 781.630859,509.978516 C781.103516,508.904297 780.839844,507.488281 780.839844,505.730469 L780.839844,505.730469 L780.839844,480.417969 C780.839844,477.488281 781.132812,474.822266 781.71875,472.419922 C782.304688,470.017578 783.193359,467.966797 784.384766,466.267578 C785.576172,464.568359 787.080078,463.259766 788.896484,462.341797 C790.712891,461.423828 792.871094,460.964844 795.371094,460.964844 C797.792969,460.964844 799.84375,461.326172 801.523438,462.048828 C803.203125,462.771484 804.560547,463.835938 805.595703,465.242188 C806.630859,466.648438 807.382812,468.367188 807.851562,470.398438 C808.320312,472.429688 808.554688,474.753906 808.554688,477.371094 L808.554688,477.371094 L808.554688,518.796875 L829.414062,518.796875 L829.414062,513.757812 L829.0625,513.757812 C827.734375,513.757812 826.503906,513.660156 825.371094,513.464844 C824.238281,513.269531 823.261719,512.869141 822.441406,512.263672 C821.621094,511.658203 820.976562,510.789062 820.507812,509.65625 C820.039062,508.523438 819.804688,507.019531 819.804688,505.144531 L819.804688,505.144531 L819.804688,476.785156 C819.804688,472.683594 819.335938,469.148438 818.398438,466.179688 C817.460938,463.210938 816.09375,460.779297 814.296875,458.884766 C812.5,456.990234 810.283203,455.583984 807.646484,454.666016 C805.009766,453.748047 801.992188,453.289062 798.59375,453.289062 C790.429688,453.289062 784.550781,456.921875 780.957031,464.1875 L780.957031,464.1875 L780.371094,464.1875 C780.449219,463.054688 780.527344,461.902344 780.605469,460.730469 C780.683594,459.714844 780.742188,458.611328 780.78125,457.419922 C780.820312,456.228516 780.839844,455.085938 780.839844,453.992188 L780.839844,453.992188 L780.839844,427.625 L758.75,427.625 L758.75,432.664062 L759.6875,432.664062 C761.015625,432.664062 762.275391,432.751953 763.466797,432.927734 C764.658203,433.103516 765.703125,433.484375 766.601562,434.070312 C767.5,434.65625 768.212891,435.486328 768.740234,436.560547 C769.267578,437.634766 769.53125,439.050781 769.53125,440.808594 L769.53125,440.808594 L769.53125,505.144531 C769.53125,507.019531 769.267578,508.523438 768.740234,509.65625 C768.212891,510.789062 767.509766,511.658203 766.630859,512.263672 C765.751953,512.869141 764.716797,513.269531 763.525391,513.464844 C762.333984,513.660156 761.054688,513.757812 759.6875,513.757812 L759.6875,513.757812 L758.75,513.757812 L758.75,518.796875 L791.035156,518.796875 Z" transform="translate(-610 -415)"/>
</svg>
