<svg xmlns="http://www.w3.org/2000/svg" width="25" height="190" viewBox="0 0 25 190">
  <path d="M-26.0703125,522.234375 C-25.171875,522.234375 -24.359375,522.126953 -23.6328125,521.912109 C-22.90625,521.697266 -22.2851562,521.382812 -21.7695312,520.96875 C-21.2539062,520.554688 -20.8574219,520.048828 -20.5800781,519.451172 C-20.3027344,518.853516 -20.1640625,518.175781 -20.1640625,517.417969 C-20.1640625,516.800781 -20.265625,516.248047 -20.46875,515.759766 C-20.671875,515.271484 -20.9648438,514.830078 -21.3476562,514.435547 C-21.7304688,514.041016 -22.1972656,513.683594 -22.7480469,513.363281 C-23.2988281,513.042969 -23.9257812,512.738281 -24.6289062,512.449219 C-25.3242188,512.167969 -25.9101562,511.896484 -26.3867188,511.634766 C-26.8632812,511.373047 -27.2480469,511.095703 -27.5410156,510.802734 C-27.8339844,510.509766 -28.0429688,510.181641 -28.1679688,509.818359 C-28.2929688,509.455078 -28.3554688,509.035156 -28.3554688,508.558594 C-28.3554688,508.144531 -28.2890625,507.769531 -28.15625,507.433594 C-28.0234375,507.097656 -27.8320312,506.810547 -27.5820312,506.572266 C-27.3320312,506.333984 -27.0253906,506.150391 -26.6621094,506.021484 C-26.2988281,505.892578 -25.8867188,505.828125 -25.4257812,505.828125 C-24.9179688,505.828125 -24.4921875,505.917969 -24.1484375,506.097656 C-23.8046875,506.277344 -23.5273438,506.509766 -23.3164062,506.794922 C-23.1054688,507.080078 -22.9550781,507.404297 -22.8652344,507.767578 C-22.7753906,508.130859 -22.7304688,508.5 -22.7304688,508.875 C-22.1523438,508.875 -21.6933594,508.744141 -21.3535156,508.482422 C-21.0136719,508.220703 -20.84375,507.832031 -20.84375,507.316406 C-20.84375,506.964844 -20.9433594,506.626953 -21.1425781,506.302734 C-21.3417969,505.978516 -21.6328125,505.691406 -22.015625,505.441406 C-22.3984375,505.191406 -22.8671875,504.992188 -23.421875,504.84375 C-23.9765625,504.695312 -24.6132812,504.621094 -25.3320312,504.621094 C-26.0898438,504.621094 -26.7890625,504.71875 -27.4296875,504.914062 C-28.0703125,505.109375 -28.625,505.392578 -29.09375,505.763672 C-29.5625,506.134766 -29.9277344,506.589844 -30.1894531,507.128906 C-30.4511719,507.667969 -30.5820312,508.28125 -30.5820312,508.96875 C-30.5820312,509.625 -30.4921875,510.214844 -30.3125,510.738281 C-30.1328125,511.261719 -29.859375,511.736328 -29.4921875,512.162109 C-29.125,512.587891 -28.6640625,512.974609 -28.109375,513.322266 C-27.5546875,513.669922 -26.90625,513.996094 -26.1640625,514.300781 C-25.4609375,514.589844 -24.8730469,514.865234 -24.4003906,515.126953 C-23.9277344,515.388672 -23.546875,515.662109 -23.2578125,515.947266 C-22.96875,516.232422 -22.7617188,516.542969 -22.6367188,516.878906 C-22.5117188,517.214844 -22.4492188,517.601562 -22.4492188,518.039062 C-22.4492188,519.015625 -22.7519531,519.763672 -23.3574219,520.283203 C-23.9628906,520.802734 -24.8046875,521.0625 -25.8828125,521.0625 C-26.4453125,521.0625 -26.9257812,520.957031 -27.3242188,520.746094 C-27.7226562,520.535156 -28.0507812,520.253906 -28.3085938,519.902344 C-28.5664062,519.550781 -28.7597656,519.144531 -28.8886719,518.683594 C-29.0175781,518.222656 -29.09375,517.742188 -29.1171875,517.242188 C-29.671875,517.242188 -30.0996094,517.390625 -30.4003906,517.6875 C-30.7011719,517.984375 -30.8515625,518.375 -30.8515625,518.859375 C-30.8515625,519.359375 -30.75,519.818359 -30.546875,520.236328 C-30.34375,520.654297 -30.0410156,521.009766 -29.6386719,521.302734 C-29.2363281,521.595703 -28.7363281,521.824219 -28.1386719,521.988281 C-27.5410156,522.152344 -26.8515625,522.234375 -26.0703125,522.234375 Z M-12.0546875,522.234375 C-11.34375,522.234375 -10.7246094,522.15625 -10.1972656,522 C-9.66992188,521.84375 -9.23046875,521.648438 -8.87890625,521.414062 C-8.52734375,521.179688 -8.265625,520.923828 -8.09375,520.646484 C-7.921875,520.369141 -7.8359375,520.109375 -7.8359375,519.867188 C-7.8359375,519.664062 -7.88476562,519.488281 -7.98242188,519.339844 C-8.08007812,519.191406 -8.18359375,519.09375 -8.29296875,519.046875 C-8.43359375,519.265625 -8.61523438,519.474609 -8.83789062,519.673828 C-9.06054688,519.873047 -9.31640625,520.050781 -9.60546875,520.207031 C-9.89453125,520.363281 -10.2167969,520.488281 -10.5722656,520.582031 C-10.9277344,520.675781 -11.3125,520.722656 -11.7265625,520.722656 C-12.296875,520.722656 -12.8007812,520.626953 -13.2382812,520.435547 C-13.6757812,520.244141 -14.0449219,519.945312 -14.3457031,519.539062 C-14.6464844,519.132812 -14.8769531,518.615234 -15.0371094,517.986328 C-15.1972656,517.357422 -15.2851562,516.605469 -15.3007812,515.730469 L-15.3007812,515.730469 L-7.30859375,515.730469 L-7.30859375,514.628906 C-7.30859375,513.683594 -7.42382812,512.853516 -7.65429688,512.138672 C-7.88476562,511.423828 -8.21484375,510.826172 -8.64453125,510.345703 C-9.07421875,509.865234 -9.59765625,509.503906 -10.2148438,509.261719 C-10.8320312,509.019531 -11.5273438,508.898438 -12.3007812,508.898438 C-14.0039062,508.898438 -15.3164062,509.464844 -16.2382812,510.597656 C-17.1601562,511.730469 -17.6210938,513.417969 -17.6210938,515.660156 C-17.6210938,516.699219 -17.4941406,517.626953 -17.2402344,518.443359 C-16.9863281,519.259766 -16.6210938,519.949219 -16.1445312,520.511719 C-15.6679688,521.074219 -15.0839844,521.501953 -14.3925781,521.794922 C-13.7011719,522.087891 -12.921875,522.234375 -12.0546875,522.234375 Z M-9.734375,514.441406 L-15.2539062,514.441406 C-15.1679688,513.050781 -14.8847656,511.994141 -14.4042969,511.271484 C-13.9238281,510.548828 -13.2382812,510.1875 -12.3476562,510.1875 C-11.8632812,510.1875 -11.4550781,510.289062 -11.1230469,510.492188 C-10.7910156,510.695312 -10.5234375,510.984375 -10.3203125,511.359375 C-10.1171875,511.734375 -9.96875,512.183594 -9.875,512.707031 C-9.78125,513.230469 -9.734375,513.808594 -9.734375,514.441406 L-9.734375,514.441406 Z M1.0234375,522 L1.0234375,520.992188 L0.71875,520.992188 C0.4453125,520.992188 0.189453125,520.972656 -0.048828125,520.933594 C-0.287109375,520.894531 -0.49609375,520.814453 -0.67578125,520.693359 C-0.85546875,520.572266 -0.99609375,520.398438 -1.09765625,520.171875 C-1.19921875,519.945312 -1.25,519.644531 -1.25,519.269531 L-1.25,519.269531 L-1.25,503.765625 L-5.78515625,503.765625 L-5.78515625,504.773438 L-5.48046875,504.773438 C-5.21484375,504.773438 -4.96289062,504.791016 -4.72460938,504.826172 C-4.48632812,504.861328 -4.27734375,504.9375 -4.09765625,505.054688 C-3.91796875,505.171875 -3.77539062,505.337891 -3.66992188,505.552734 C-3.56445312,505.767578 -3.51171875,506.050781 -3.51171875,506.402344 L-3.51171875,506.402344 L-3.51171875,519.269531 C-3.51171875,519.644531 -3.56445312,519.945312 -3.66992188,520.171875 C-3.77539062,520.398438 -3.91601562,520.572266 -4.09179688,520.693359 C-4.26757812,520.814453 -4.47460938,520.894531 -4.71289062,520.933594 C-4.95117188,520.972656 -5.20703125,520.992188 -5.48046875,520.992188 L-5.48046875,520.992188 L-5.78515625,520.992188 L-5.78515625,522 L1.0234375,522 Z M8.23046875,522.234375 C8.94140625,522.234375 9.56054688,522.15625 10.0878906,522 C10.6152344,521.84375 11.0546875,521.648438 11.40625,521.414062 C11.7578125,521.179688 12.0195312,520.923828 12.1914062,520.646484 C12.3632812,520.369141 12.4492188,520.109375 12.4492188,519.867188 C12.4492188,519.664062 12.4003906,519.488281 12.3027344,519.339844 C12.2050781,519.191406 12.1015625,519.09375 11.9921875,519.046875 C11.8515625,519.265625 11.6699219,519.474609 11.4472656,519.673828 C11.2246094,519.873047 10.96875,520.050781 10.6796875,520.207031 C10.390625,520.363281 10.0683594,520.488281 9.71289062,520.582031 C9.35742188,520.675781 8.97265625,520.722656 8.55859375,520.722656 C7.98828125,520.722656 7.484375,520.626953 7.046875,520.435547 C6.609375,520.244141 6.24023438,519.945312 5.93945312,519.539062 C5.63867188,519.132812 5.40820312,518.615234 5.24804688,517.986328 C5.08789062,517.357422 5,516.605469 4.984375,515.730469 L4.984375,515.730469 L12.9765625,515.730469 L12.9765625,514.628906 C12.9765625,513.683594 12.8613281,512.853516 12.6308594,512.138672 C12.4003906,511.423828 12.0703125,510.826172 11.640625,510.345703 C11.2109375,509.865234 10.6875,509.503906 10.0703125,509.261719 C9.453125,509.019531 8.7578125,508.898438 7.984375,508.898438 C6.28125,508.898438 4.96875,509.464844 4.046875,510.597656 C3.125,511.730469 2.6640625,513.417969 2.6640625,515.660156 C2.6640625,516.699219 2.79101562,517.626953 3.04492188,518.443359 C3.29882812,519.259766 3.6640625,519.949219 4.140625,520.511719 C4.6171875,521.074219 5.20117188,521.501953 5.89257812,521.794922 C6.58398438,522.087891 7.36328125,522.234375 8.23046875,522.234375 Z M10.5507812,514.441406 L5.03125,514.441406 C5.1171875,513.050781 5.40039062,511.994141 5.88085938,511.271484 C6.36132812,510.548828 7.046875,510.1875 7.9375,510.1875 C8.421875,510.1875 8.83007812,510.289062 9.16210938,510.492188 C9.49414062,510.695312 9.76171875,510.984375 9.96484375,511.359375 C10.1679688,511.734375 10.3164062,512.183594 10.4101562,512.707031 C10.5039062,513.230469 10.5507812,513.808594 10.5507812,514.441406 L10.5507812,514.441406 Z M20.9804688,522.234375 C21.6601562,522.234375 22.2539062,522.166016 22.7617188,522.029297 C23.2695312,521.892578 23.6933594,521.714844 24.0332031,521.496094 C24.3730469,521.277344 24.6289062,521.03125 24.8007812,520.757812 C24.9726562,520.484375 25.0585938,520.210938 25.0585938,519.9375 C25.0585938,519.71875 25.0195312,519.53125 24.9414062,519.375 C24.8632812,519.21875 24.765625,519.09375 24.6484375,519 C24.375,519.492188 23.9609375,519.894531 23.40625,520.207031 C22.8515625,520.519531 22.203125,520.675781 21.4609375,520.675781 C20.171875,520.675781 19.2441406,520.257812 18.6777344,519.421875 C18.1113281,518.585938 17.828125,517.316406 17.828125,515.613281 C17.828125,514.542969 17.8984375,513.652344 18.0390625,512.941406 C18.1796875,512.230469 18.3828125,511.664062 18.6484375,511.242188 C18.9140625,510.820312 19.2324219,510.523438 19.6035156,510.351562 C19.9746094,510.179688 20.390625,510.09375 20.8515625,510.09375 C21.2578125,510.09375 21.5917969,510.166016 21.8535156,510.310547 C22.1152344,510.455078 22.3222656,510.654297 22.4746094,510.908203 C22.6269531,511.162109 22.734375,511.457031 22.796875,511.792969 C22.859375,512.128906 22.890625,512.484375 22.890625,512.859375 C23.6015625,512.859375 24.1367188,512.746094 24.4960938,512.519531 C24.8554688,512.292969 25.0351562,511.902344 25.0351562,511.347656 C25.0351562,510.933594 24.9101562,510.572266 24.6601562,510.263672 C24.4101562,509.955078 24.0859375,509.699219 23.6875,509.496094 C23.2890625,509.292969 22.8417969,509.142578 22.3457031,509.044922 C21.8496094,508.947266 21.3515625,508.898438 20.8515625,508.898438 C20.09375,508.898438 19.3886719,509.007812 18.7363281,509.226562 C18.0839844,509.445312 17.5175781,509.816406 17.0371094,510.339844 C16.5566406,510.863281 16.1816406,511.556641 15.9121094,512.419922 C15.6425781,513.283203 15.5078125,514.355469 15.5078125,515.636719 C15.5078125,516.816406 15.6425781,517.822266 15.9121094,518.654297 C16.1816406,519.486328 16.5585938,520.167969 17.0429688,520.699219 C17.5273438,521.230469 18.1054688,521.619141 18.7773438,521.865234 C19.4492188,522.111328 20.1835938,522.234375 20.9804688,522.234375 Z M31.7617188,522.234375 C31.9492188,522.234375 32.1484375,522.224609 32.359375,522.205078 C32.5703125,522.185547 32.7714844,522.158203 32.9628906,522.123047 C33.1542969,522.087891 33.3320312,522.046875 33.4960938,522 C33.6601562,521.953125 33.7929688,521.90625 33.8945312,521.859375 L33.8945312,521.859375 L33.8945312,520.804688 C33.6445312,520.851562 33.3984375,520.890625 33.15625,520.921875 C32.9140625,520.953125 32.6484375,520.96875 32.359375,520.96875 C31.8046875,520.96875 31.3613281,520.777344 31.0292969,520.394531 C30.6972656,520.011719 30.53125,519.410156 30.53125,518.589844 L30.53125,518.589844 L30.53125,510.503906 L33.671875,510.503906 L33.671875,509.132812 L30.53125,509.132812 L30.53125,506.179688 L29.4296875,506.179688 C29.3046875,506.796875 29.1582031,507.310547 28.9902344,507.720703 C28.8222656,508.130859 28.6015625,508.484375 28.328125,508.78125 C28.0625,509.054688 27.7558594,509.25 27.4082031,509.367188 C27.0605469,509.484375 26.7421875,509.542969 26.453125,509.542969 L26.453125,509.542969 L26.453125,510.503906 L28.28125,510.503906 L28.28125,518.519531 C28.28125,519.207031 28.3496094,519.789062 28.4863281,520.265625 C28.6230469,520.742188 28.8320312,521.125 29.1132812,521.414062 C29.3945312,521.703125 29.7539062,521.912109 30.1914062,522.041016 C30.6289062,522.169922 31.1523438,522.234375 31.7617188,522.234375 Z M41.3359375,522.234375 C42.046875,522.234375 42.6660156,522.15625 43.1933594,522 C43.7207031,521.84375 44.1601562,521.648438 44.5117188,521.414062 C44.8632812,521.179688 45.125,520.923828 45.296875,520.646484 C45.46875,520.369141 45.5546875,520.109375 45.5546875,519.867188 C45.5546875,519.664062 45.5058594,519.488281 45.4082031,519.339844 C45.3105469,519.191406 45.2070312,519.09375 45.0976562,519.046875 C44.9570312,519.265625 44.7753906,519.474609 44.5527344,519.673828 C44.3300781,519.873047 44.0742188,520.050781 43.7851562,520.207031 C43.4960938,520.363281 43.1738281,520.488281 42.8183594,520.582031 C42.4628906,520.675781 42.078125,520.722656 41.6640625,520.722656 C41.09375,520.722656 40.5898438,520.626953 40.1523438,520.435547 C39.7148438,520.244141 39.3457031,519.945312 39.0449219,519.539062 C38.7441406,519.132812 38.5136719,518.615234 38.3535156,517.986328 C38.1933594,517.357422 38.1054688,516.605469 38.0898438,515.730469 L38.0898438,515.730469 L46.0820312,515.730469 L46.0820312,514.628906 C46.0820312,513.683594 45.9667969,512.853516 45.7363281,512.138672 C45.5058594,511.423828 45.1757812,510.826172 44.7460938,510.345703 C44.3164062,509.865234 43.7929688,509.503906 43.1757812,509.261719 C42.5585938,509.019531 41.8632812,508.898438 41.0898438,508.898438 C39.3867188,508.898438 38.0742188,509.464844 37.1523438,510.597656 C36.2304688,511.730469 35.7695312,513.417969 35.7695312,515.660156 C35.7695312,516.699219 35.8964844,517.626953 36.1503906,518.443359 C36.4042969,519.259766 36.7695312,519.949219 37.2460938,520.511719 C37.7226562,521.074219 38.3066406,521.501953 38.9980469,521.794922 C39.6894531,522.087891 40.46875,522.234375 41.3359375,522.234375 Z M43.65625,514.441406 L38.1367188,514.441406 C38.2226562,513.050781 38.5058594,511.994141 38.9863281,511.271484 C39.4667969,510.548828 40.1523438,510.1875 41.0429688,510.1875 C41.5273438,510.1875 41.9355469,510.289062 42.2675781,510.492188 C42.5996094,510.695312 42.8671875,510.984375 43.0703125,511.359375 C43.2734375,511.734375 43.421875,512.183594 43.515625,512.707031 C43.609375,513.230469 43.65625,513.808594 43.65625,514.441406 L43.65625,514.441406 Z M53.5,522.234375 C53.96875,522.234375 54.390625,522.177734 54.765625,522.064453 C55.140625,521.951172 55.4765625,521.791016 55.7734375,521.583984 C56.0703125,521.376953 56.3339844,521.126953 56.5644531,520.833984 C56.7949219,520.541016 57,520.210938 57.1796875,519.84375 L57.1796875,519.84375 L57.2734375,519.84375 L57.53125,522 L61.5976562,522 L61.5976562,520.992188 L61.3984375,520.992188 C61.1328125,520.992188 60.8808594,520.974609 60.6425781,520.939453 C60.4042969,520.904297 60.1953125,520.828125 60.015625,520.710938 C59.8359375,520.59375 59.6933594,520.427734 59.5878906,520.212891 C59.4824219,519.998047 59.4296875,519.714844 59.4296875,519.363281 L59.4296875,519.363281 L59.4296875,503.765625 L55.0117188,503.765625 L55.0117188,504.773438 L55.2109375,504.773438 C55.4765625,504.773438 55.7285156,504.791016 55.9667969,504.826172 C56.2050781,504.861328 56.4140625,504.9375 56.59375,505.054688 C56.7734375,505.171875 56.9160156,505.337891 57.0214844,505.552734 C57.1269531,505.767578 57.1796875,506.050781 57.1796875,506.402344 L57.1796875,506.402344 L57.1796875,508.371094 C57.1796875,508.511719 57.1875,508.728516 57.203125,509.021484 C57.21875,509.314453 57.234375,509.609375 57.25,509.90625 C57.2734375,510.25 57.296875,510.617188 57.3203125,511.007812 L57.3203125,511.007812 L57.1796875,511.007812 C57.0078125,510.695312 56.8046875,510.410156 56.5703125,510.152344 C56.3359375,509.894531 56.0683594,509.671875 55.7675781,509.484375 C55.4667969,509.296875 55.1289062,509.152344 54.7539062,509.050781 C54.3789062,508.949219 53.9609375,508.898438 53.5,508.898438 C52.7109375,508.898438 52.0117188,509.029297 51.4023438,509.291016 C50.7929688,509.552734 50.28125,509.957031 49.8671875,510.503906 C49.453125,511.050781 49.140625,511.746094 48.9296875,512.589844 C48.71875,513.433594 48.6132812,514.433594 48.6132812,515.589844 C48.6132812,516.738281 48.71875,517.730469 48.9296875,518.566406 C49.140625,519.402344 49.453125,520.091797 49.8671875,520.634766 C50.28125,521.177734 50.7929688,521.580078 51.4023438,521.841797 C52.0117188,522.103516 52.7109375,522.234375 53.5,522.234375 Z M53.9101562,520.699219 C52.8476562,520.699219 52.0859375,520.277344 51.625,519.433594 C51.1640625,518.589844 50.9335938,517.316406 50.9335938,515.613281 C50.9335938,514.777344 50.9882812,514.037109 51.0976562,513.392578 C51.2070312,512.748047 51.3808594,512.207031 51.6191406,511.769531 C51.8574219,511.332031 52.1640625,511 52.5390625,510.773438 C52.9140625,510.546875 53.3632812,510.433594 53.8867188,510.433594 C54.5195312,510.433594 55.046875,510.546875 55.46875,510.773438 C55.890625,511 56.2285156,511.330078 56.4824219,511.763672 C56.7363281,512.197266 56.9160156,512.734375 57.0214844,513.375 C57.1269531,514.015625 57.1796875,514.753906 57.1796875,515.589844 C57.1796875,516.457031 57.1269531,517.210938 57.0214844,517.851562 C56.9160156,518.492188 56.7363281,519.023438 56.4824219,519.445312 C56.2285156,519.867188 55.8925781,520.181641 55.4746094,520.388672 C55.0566406,520.595703 54.5351562,520.699219 53.9101562,520.699219 Z M76.6328125,522 L76.6328125,520.992188 L75.8359375,520.992188 C75.5703125,520.992188 75.3183594,520.974609 75.0800781,520.939453 C74.8417969,520.904297 74.6328125,520.832031 74.453125,520.722656 C74.2734375,520.613281 74.1308594,520.451172 74.0253906,520.236328 C73.9199219,520.021484 73.8671875,519.738281 73.8671875,519.386719 L73.8671875,519.386719 L73.8671875,515.332031 L75.3789062,515.332031 C76.5664062,515.332031 77.5703125,515.181641 78.390625,514.880859 C79.2109375,514.580078 79.875,514.177734 80.3828125,513.673828 C80.890625,513.169922 81.2558594,512.589844 81.4785156,511.933594 C81.7011719,511.277344 81.8125,510.59375 81.8125,509.882812 C81.8125,509.101562 81.6933594,508.402344 81.4550781,507.785156 C81.2167969,507.167969 80.8554688,506.642578 80.3710938,506.208984 C79.8867188,505.775391 79.2734375,505.443359 78.53125,505.212891 C77.7890625,504.982422 76.9140625,504.867188 75.90625,504.867188 L75.90625,504.867188 L69.1679688,504.867188 L69.1679688,505.875 L69.4726562,505.875 C69.7382812,505.875 69.9902344,505.892578 70.2285156,505.927734 C70.4667969,505.962891 70.6757812,506.039062 70.8554688,506.15625 C71.0351562,506.273438 71.1777344,506.439453 71.2832031,506.654297 C71.3886719,506.869141 71.4414062,507.152344 71.4414062,507.503906 L71.4414062,507.503906 L71.4414062,519.269531 C71.4414062,519.644531 71.390625,519.945312 71.2890625,520.171875 C71.1875,520.398438 71.046875,520.572266 70.8671875,520.693359 C70.6875,520.814453 70.4785156,520.894531 70.2402344,520.933594 C70.0019531,520.972656 69.7460938,520.992188 69.4726562,520.992188 L69.4726562,520.992188 L69.1679688,520.992188 L69.1679688,522 L76.6328125,522 Z M75.1445312,514.195312 L73.8671875,514.195312 L73.8671875,506.015625 L75.4960938,506.015625 C76.1757812,506.015625 76.7519531,506.095703 77.2246094,506.255859 C77.6972656,506.416016 78.0820312,506.660156 78.3789062,506.988281 C78.6757812,507.316406 78.890625,507.728516 79.0234375,508.224609 C79.15625,508.720703 79.2226562,509.304688 79.2226562,509.976562 C79.2226562,510.734375 79.1464844,511.380859 78.9941406,511.916016 C78.8417969,512.451172 78.6015625,512.888672 78.2734375,513.228516 C77.9453125,513.568359 77.5234375,513.814453 77.0078125,513.966797 C76.4921875,514.119141 75.8710938,514.195312 75.1445312,514.195312 L75.1445312,514.195312 Z M90.4726562,522 L90.4726562,520.992188 L89.8046875,520.992188 C89.5390625,520.992188 89.2871094,520.974609 89.0488281,520.939453 C88.8105469,520.904297 88.6015625,520.832031 88.421875,520.722656 C88.2421875,520.613281 88.0996094,520.451172 87.9941406,520.236328 C87.8886719,520.021484 87.8359375,519.738281 87.8359375,519.386719 L87.8359375,519.386719 L87.8359375,515.613281 C87.8359375,515.308594 87.8515625,514.96875 87.8828125,514.59375 C87.9140625,514.21875 87.9667969,513.841797 88.0410156,513.462891 C88.1152344,513.083984 88.2128906,512.714844 88.3339844,512.355469 C88.4550781,511.996094 88.6035156,511.677734 88.7792969,511.400391 C88.9550781,511.123047 89.1601562,510.900391 89.3945312,510.732422 C89.6289062,510.564453 89.8945312,510.480469 90.1914062,510.480469 C90.6601562,510.480469 90.9882812,510.626953 91.1757812,510.919922 C91.3632812,511.212891 91.4570312,511.691406 91.4570312,512.355469 C91.8632812,512.355469 92.2070312,512.314453 92.4882812,512.232422 C92.7695312,512.150391 93,512.033203 93.1796875,511.880859 C93.359375,511.728516 93.4902344,511.546875 93.5722656,511.335938 C93.6542969,511.125 93.6953125,510.894531 93.6953125,510.644531 C93.6953125,510.089844 93.4824219,509.660156 93.0566406,509.355469 C92.6308594,509.050781 91.9804688,508.898438 91.1054688,508.898438 C90.5742188,508.898438 90.1328125,508.966797 89.78125,509.103516 C89.4296875,509.240234 89.1347656,509.427734 88.8964844,509.666016 C88.6582031,509.904297 88.4570312,510.181641 88.2929688,510.498047 C88.1289062,510.814453 87.96875,511.152344 87.8125,511.511719 L87.8125,511.511719 L87.6953125,511.511719 L87.2382812,509.132812 L83.546875,509.132812 L83.546875,510.140625 L83.6171875,510.140625 C83.8828125,510.140625 84.1347656,510.160156 84.3730469,510.199219 C84.6113281,510.238281 84.8203125,510.316406 85,510.433594 C85.1796875,510.550781 85.3222656,510.716797 85.4277344,510.931641 C85.5332031,511.146484 85.5859375,511.429688 85.5859375,511.78125 L85.5859375,511.78125 L85.5859375,519.269531 C85.5859375,519.644531 85.5332031,519.945312 85.4277344,520.171875 C85.3222656,520.398438 85.1816406,520.572266 85.0058594,520.693359 C84.8300781,520.814453 84.6230469,520.894531 84.3847656,520.933594 C84.1464844,520.972656 83.890625,520.992188 83.6171875,520.992188 L83.6171875,520.992188 L83.546875,520.992188 L83.546875,522 L90.4726562,522 Z M100.949219,522.234375 C102.792969,522.234375 104.193359,521.683594 105.150391,520.582031 C106.107422,519.480469 106.585938,517.800781 106.585938,515.542969 C106.585938,514.417969 106.458984,513.439453 106.205078,512.607422 C105.951172,511.775391 105.583984,511.083984 105.103516,510.533203 C104.623047,509.982422 104.039062,509.572266 103.351562,509.302734 C102.664062,509.033203 101.886719,508.898438 101.019531,508.898438 C99.1601562,508.898438 97.7558594,509.445312 96.8066406,510.539062 C95.8574219,511.632812 95.3828125,513.300781 95.3828125,515.542969 C95.3828125,516.667969 95.5097656,517.650391 95.7636719,518.490234 C96.0175781,519.330078 96.3847656,520.027344 96.8652344,520.582031 C97.3457031,521.136719 97.9296875,521.550781 98.6171875,521.824219 C99.3046875,522.097656 100.082031,522.234375 100.949219,522.234375 Z M100.996094,520.992188 C100.394531,520.992188 99.8847656,520.875 99.4667969,520.640625 C99.0488281,520.40625 98.7089844,520.060547 98.4472656,519.603516 C98.1855469,519.146484 97.9960938,518.578125 97.8789062,517.898438 C97.7617188,517.21875 97.703125,516.433594 97.703125,515.542969 C97.703125,514.652344 97.7617188,513.871094 97.8789062,513.199219 C97.9960938,512.527344 98.1835938,511.966797 98.4414062,511.517578 C98.6992188,511.068359 99.0351562,510.730469 99.4492188,510.503906 C99.8632812,510.277344 100.371094,510.164062 100.972656,510.164062 C101.574219,510.164062 102.083984,510.277344 102.501953,510.503906 C102.919922,510.730469 103.257812,511.068359 103.515625,511.517578 C103.773438,511.966797 103.960938,512.527344 104.078125,513.199219 C104.195312,513.871094 104.253906,514.652344 104.253906,515.542969 C104.253906,516.433594 104.197266,517.21875 104.083984,517.898438 C103.970703,518.578125 103.785156,519.146484 103.527344,519.603516 C103.269531,520.060547 102.933594,520.40625 102.519531,520.640625 C102.105469,520.875 101.597656,520.992188 100.996094,520.992188 Z M111.53125,506.730469 C111.71875,506.730469 111.896484,506.705078 112.064453,506.654297 C112.232422,506.603516 112.376953,506.519531 112.498047,506.402344 C112.619141,506.285156 112.716797,506.132812 112.791016,505.945312 C112.865234,505.757812 112.902344,505.523438 112.902344,505.242188 C112.902344,504.960938 112.865234,504.726562 112.791016,504.539062 C112.716797,504.351562 112.619141,504.199219 112.498047,504.082031 C112.376953,503.964844 112.232422,503.882812 112.064453,503.835938 C111.896484,503.789062 111.71875,503.765625 111.53125,503.765625 C111.34375,503.765625 111.166016,503.789062 110.998047,503.835938 C110.830078,503.882812 110.685547,503.964844 110.564453,504.082031 C110.443359,504.199219 110.347656,504.351562 110.277344,504.539062 C110.207031,504.726562 110.171875,504.960938 110.171875,505.242188 C110.171875,505.523438 110.207031,505.757812 110.277344,505.945312 C110.347656,506.132812 110.443359,506.285156 110.564453,506.402344 C110.685547,506.519531 110.830078,506.603516 110.998047,506.654297 C111.166016,506.705078 111.34375,506.730469 111.53125,506.730469 Z M108.003906,527.765625 C108.699219,527.765625 109.337891,527.675781 109.919922,527.496094 C110.501953,527.316406 111.003906,527.013672 111.425781,526.587891 C111.847656,526.162109 112.175781,525.591797 112.410156,524.876953 C112.644531,524.162109 112.761719,523.265625 112.761719,522.1875 L112.761719,522.1875 L112.761719,509.132812 L108.460938,509.132812 L108.460938,510.140625 L108.53125,510.140625 C108.796875,510.140625 109.048828,510.160156 109.287109,510.199219 C109.525391,510.238281 109.734375,510.316406 109.914062,510.433594 C110.09375,510.550781 110.236328,510.716797 110.341797,510.931641 C110.447266,511.146484 110.5,511.429688 110.5,511.78125 L110.5,511.78125 L110.5,522.210938 C110.5,523.054688 110.439453,523.759766 110.318359,524.326172 C110.197266,524.892578 110.021484,525.345703 109.791016,525.685547 C109.560547,526.025391 109.277344,526.267578 108.941406,526.412109 C108.605469,526.556641 108.222656,526.628906 107.792969,526.628906 L107.792969,526.628906 L107.617188,526.628906 L107.617188,527.765625 L108.003906,527.765625 Z M121.996094,522.234375 C122.707031,522.234375 123.326172,522.15625 123.853516,522 C124.380859,521.84375 124.820312,521.648438 125.171875,521.414062 C125.523438,521.179688 125.785156,520.923828 125.957031,520.646484 C126.128906,520.369141 126.214844,520.109375 126.214844,519.867188 C126.214844,519.664062 126.166016,519.488281 126.068359,519.339844 C125.970703,519.191406 125.867188,519.09375 125.757812,519.046875 C125.617188,519.265625 125.435547,519.474609 125.212891,519.673828 C124.990234,519.873047 124.734375,520.050781 124.445312,520.207031 C124.15625,520.363281 123.833984,520.488281 123.478516,520.582031 C123.123047,520.675781 122.738281,520.722656 122.324219,520.722656 C121.753906,520.722656 121.25,520.626953 120.8125,520.435547 C120.375,520.244141 120.005859,519.945312 119.705078,519.539062 C119.404297,519.132812 119.173828,518.615234 119.013672,517.986328 C118.853516,517.357422 118.765625,516.605469 118.75,515.730469 L118.75,515.730469 L126.742188,515.730469 L126.742188,514.628906 C126.742188,513.683594 126.626953,512.853516 126.396484,512.138672 C126.166016,511.423828 125.835938,510.826172 125.40625,510.345703 C124.976562,509.865234 124.453125,509.503906 123.835938,509.261719 C123.21875,509.019531 122.523438,508.898438 121.75,508.898438 C120.046875,508.898438 118.734375,509.464844 117.8125,510.597656 C116.890625,511.730469 116.429688,513.417969 116.429688,515.660156 C116.429688,516.699219 116.556641,517.626953 116.810547,518.443359 C117.064453,519.259766 117.429688,519.949219 117.90625,520.511719 C118.382812,521.074219 118.966797,521.501953 119.658203,521.794922 C120.349609,522.087891 121.128906,522.234375 121.996094,522.234375 Z M124.316406,514.441406 L118.796875,514.441406 C118.882812,513.050781 119.166016,511.994141 119.646484,511.271484 C120.126953,510.548828 120.8125,510.1875 121.703125,510.1875 C122.1875,510.1875 122.595703,510.289062 122.927734,510.492188 C123.259766,510.695312 123.527344,510.984375 123.730469,511.359375 C123.933594,511.734375 124.082031,512.183594 124.175781,512.707031 C124.269531,513.230469 124.316406,513.808594 124.316406,514.441406 L124.316406,514.441406 Z M134.746094,522.234375 C135.425781,522.234375 136.019531,522.166016 136.527344,522.029297 C137.035156,521.892578 137.458984,521.714844 137.798828,521.496094 C138.138672,521.277344 138.394531,521.03125 138.566406,520.757812 C138.738281,520.484375 138.824219,520.210938 138.824219,519.9375 C138.824219,519.71875 138.785156,519.53125 138.707031,519.375 C138.628906,519.21875 138.53125,519.09375 138.414062,519 C138.140625,519.492188 137.726562,519.894531 137.171875,520.207031 C136.617188,520.519531 135.96875,520.675781 135.226562,520.675781 C133.9375,520.675781 133.009766,520.257812 132.443359,519.421875 C131.876953,518.585938 131.59375,517.316406 131.59375,515.613281 C131.59375,514.542969 131.664062,513.652344 131.804688,512.941406 C131.945312,512.230469 132.148438,511.664062 132.414062,511.242188 C132.679688,510.820312 132.998047,510.523438 133.369141,510.351562 C133.740234,510.179688 134.15625,510.09375 134.617188,510.09375 C135.023438,510.09375 135.357422,510.166016 135.619141,510.310547 C135.880859,510.455078 136.087891,510.654297 136.240234,510.908203 C136.392578,511.162109 136.5,511.457031 136.5625,511.792969 C136.625,512.128906 136.65625,512.484375 136.65625,512.859375 C137.367188,512.859375 137.902344,512.746094 138.261719,512.519531 C138.621094,512.292969 138.800781,511.902344 138.800781,511.347656 C138.800781,510.933594 138.675781,510.572266 138.425781,510.263672 C138.175781,509.955078 137.851562,509.699219 137.453125,509.496094 C137.054688,509.292969 136.607422,509.142578 136.111328,509.044922 C135.615234,508.947266 135.117188,508.898438 134.617188,508.898438 C133.859375,508.898438 133.154297,509.007812 132.501953,509.226562 C131.849609,509.445312 131.283203,509.816406 130.802734,510.339844 C130.322266,510.863281 129.947266,511.556641 129.677734,512.419922 C129.408203,513.283203 129.273438,514.355469 129.273438,515.636719 C129.273438,516.816406 129.408203,517.822266 129.677734,518.654297 C129.947266,519.486328 130.324219,520.167969 130.808594,520.699219 C131.292969,521.230469 131.871094,521.619141 132.542969,521.865234 C133.214844,522.111328 133.949219,522.234375 134.746094,522.234375 Z M145.527344,522.234375 C145.714844,522.234375 145.914062,522.224609 146.125,522.205078 C146.335938,522.185547 146.537109,522.158203 146.728516,522.123047 C146.919922,522.087891 147.097656,522.046875 147.261719,522 C147.425781,521.953125 147.558594,521.90625 147.660156,521.859375 L147.660156,521.859375 L147.660156,520.804688 C147.410156,520.851562 147.164062,520.890625 146.921875,520.921875 C146.679688,520.953125 146.414062,520.96875 146.125,520.96875 C145.570312,520.96875 145.126953,520.777344 144.794922,520.394531 C144.462891,520.011719 144.296875,519.410156 144.296875,518.589844 L144.296875,518.589844 L144.296875,510.503906 L147.4375,510.503906 L147.4375,509.132812 L144.296875,509.132812 L144.296875,506.179688 L143.195312,506.179688 C143.070312,506.796875 142.923828,507.310547 142.755859,507.720703 C142.587891,508.130859 142.367188,508.484375 142.09375,508.78125 C141.828125,509.054688 141.521484,509.25 141.173828,509.367188 C140.826172,509.484375 140.507812,509.542969 140.21875,509.542969 L140.21875,509.542969 L140.21875,510.503906 L142.046875,510.503906 L142.046875,518.519531 C142.046875,519.207031 142.115234,519.789062 142.251953,520.265625 C142.388672,520.742188 142.597656,521.125 142.878906,521.414062 C143.160156,521.703125 143.519531,521.912109 143.957031,522.041016 C144.394531,522.169922 144.917969,522.234375 145.527344,522.234375 Z M153.25,522.234375 C153.960938,522.234375 154.607422,522.15625 155.189453,522 C155.771484,521.84375 156.269531,521.607422 156.683594,521.291016 C157.097656,520.974609 157.417969,520.582031 157.644531,520.113281 C157.871094,519.644531 157.984375,519.097656 157.984375,518.472656 C157.984375,517.972656 157.914062,517.53125 157.773438,517.148438 C157.632812,516.765625 157.416016,516.421875 157.123047,516.117188 C156.830078,515.8125 156.457031,515.53125 156.003906,515.273438 C155.550781,515.015625 155.007812,514.753906 154.375,514.488281 C153.84375,514.269531 153.388672,514.072266 153.009766,513.896484 C152.630859,513.720703 152.322266,513.539062 152.083984,513.351562 C151.845703,513.164062 151.671875,512.958984 151.5625,512.736328 C151.453125,512.513672 151.398438,512.25 151.398438,511.945312 C151.398438,511.664062 151.441406,511.40625 151.527344,511.171875 C151.613281,510.9375 151.748047,510.734375 151.931641,510.5625 C152.115234,510.390625 152.351562,510.257812 152.640625,510.164062 C152.929688,510.070312 153.277344,510.023438 153.683594,510.023438 C154.394531,510.023438 154.916016,510.246094 155.248047,510.691406 C155.580078,511.136719 155.746094,511.761719 155.746094,512.566406 C156.300781,512.566406 156.728516,512.435547 157.029297,512.173828 C157.330078,511.912109 157.480469,511.5625 157.480469,511.125 C157.480469,510.828125 157.40625,510.544922 157.257812,510.275391 C157.109375,510.005859 156.886719,509.771484 156.589844,509.572266 C156.292969,509.373047 155.925781,509.214844 155.488281,509.097656 C155.050781,508.980469 154.546875,508.921875 153.976562,508.921875 C153.296875,508.921875 152.679688,508.996094 152.125,509.144531 C151.570312,509.292969 151.09375,509.509766 150.695312,509.794922 C150.296875,510.080078 149.990234,510.433594 149.775391,510.855469 C149.560547,511.277344 149.453125,511.761719 149.453125,512.308594 C149.453125,512.832031 149.527344,513.283203 149.675781,513.662109 C149.824219,514.041016 150.046875,514.378906 150.34375,514.675781 C150.640625,514.972656 151.017578,515.248047 151.474609,515.501953 C151.931641,515.755859 152.46875,516.019531 153.085938,516.292969 C153.664062,516.542969 154.144531,516.765625 154.527344,516.960938 C154.910156,517.15625 155.212891,517.347656 155.435547,517.535156 C155.658203,517.722656 155.814453,517.923828 155.904297,518.138672 C155.994141,518.353516 156.039062,518.609375 156.039062,518.90625 C156.039062,519.226562 155.980469,519.521484 155.863281,519.791016 C155.746094,520.060547 155.576172,520.291016 155.353516,520.482422 C155.130859,520.673828 154.855469,520.822266 154.527344,520.927734 C154.199219,521.033203 153.820312,521.085938 153.390625,521.085938 C152.90625,521.085938 152.498047,521.005859 152.166016,520.845703 C151.833984,520.685547 151.566406,520.466797 151.363281,520.189453 C151.160156,519.912109 151.015625,519.589844 150.929688,519.222656 C150.84375,518.855469 150.800781,518.460938 150.800781,518.039062 C150.660156,518.039062 150.501953,518.064453 150.326172,518.115234 C150.150391,518.166016 149.986328,518.253906 149.833984,518.378906 C149.681641,518.503906 149.552734,518.673828 149.447266,518.888672 C149.341797,519.103516 149.289062,519.371094 149.289062,519.691406 C149.289062,520.113281 149.382812,520.482422 149.570312,520.798828 C149.757812,521.115234 150.023438,521.380859 150.367188,521.595703 C150.710938,521.810547 151.126953,521.970703 151.615234,522.076172 C152.103516,522.181641 152.648438,522.234375 153.25,522.234375 Z" transform="rotate(90 248.566 279.766)"/>
</svg>
