<svg xmlns="http://www.w3.org/2000/svg" width="19" height="125" viewBox="0 0 19 125">
  <path d="M1324.54297,522 L1324.66016,517.851562 L1323.65234,517.851562 L1323.55859,518.285156 C1323.50391,518.519531 1323.43555,518.744141 1323.35352,518.958984 C1323.27148,519.173828 1323.15625,519.363281 1323.00781,519.527344 C1322.85938,519.691406 1322.66797,519.824219 1322.43359,519.925781 C1322.19922,520.027344 1321.90234,520.078125 1321.54297,520.078125 L1321.54297,520.078125 L1316,520.078125 L1320.05469,515.589844 C1320.6875,514.894531 1321.25195,514.246094 1321.74805,513.644531 C1322.24414,513.042969 1322.66406,512.462891 1323.00781,511.904297 C1323.35156,511.345703 1323.61328,510.800781 1323.79297,510.269531 C1323.97266,509.738281 1324.0625,509.191406 1324.0625,508.628906 C1324.0625,508.019531 1323.95117,507.46875 1323.72852,506.976562 C1323.50586,506.484375 1323.18359,506.064453 1322.76172,505.716797 C1322.33984,505.369141 1321.82812,505.099609 1321.22656,504.908203 C1320.625,504.716797 1319.94531,504.621094 1319.1875,504.621094 C1318.41406,504.621094 1317.73438,504.701172 1317.14844,504.861328 C1316.5625,505.021484 1316.07227,505.246094 1315.67773,505.535156 C1315.2832,505.824219 1314.98633,506.166016 1314.78711,506.560547 C1314.58789,506.955078 1314.48828,507.382812 1314.48828,507.84375 C1314.48828,508.148438 1314.54102,508.400391 1314.64648,508.599609 C1314.75195,508.798828 1314.89844,508.958984 1315.08594,509.080078 C1315.27344,509.201172 1315.49219,509.285156 1315.74219,509.332031 C1315.99219,509.378906 1316.26172,509.402344 1316.55078,509.402344 C1316.55078,508.925781 1316.58594,508.472656 1316.65625,508.042969 C1316.72656,507.613281 1316.85938,507.234375 1317.05469,506.90625 C1317.25,506.578125 1317.51758,506.316406 1317.85742,506.121094 C1318.19727,505.925781 1318.64062,505.828125 1319.1875,505.828125 C1319.60938,505.828125 1319.97461,505.900391 1320.2832,506.044922 C1320.5918,506.189453 1320.8457,506.396484 1321.04492,506.666016 C1321.24414,506.935547 1321.39258,507.255859 1321.49023,507.626953 C1321.58789,507.998047 1321.63672,508.414062 1321.63672,508.875 C1321.63672,509.421875 1321.57812,509.943359 1321.46094,510.439453 C1321.34375,510.935547 1321.15234,511.443359 1320.88672,511.962891 C1320.62109,512.482422 1320.27148,513.035156 1319.83789,513.621094 C1319.4043,514.207031 1318.86719,514.871094 1318.22656,515.613281 L1318.22656,515.613281 L1314.21875,520.242188 L1314.21875,522 L1324.54297,522 Z M1333.13281,522.234375 C1334.07812,522.234375 1334.90234,522.023438 1335.60547,521.601562 C1336.30859,521.179688 1336.89453,520.582031 1337.36328,519.808594 C1337.83203,519.035156 1338.18164,518.105469 1338.41211,517.019531 C1338.64258,515.933594 1338.75781,514.730469 1338.75781,513.410156 C1338.75781,512.074219 1338.64258,510.865234 1338.41211,509.783203 C1338.18164,508.701172 1337.83203,507.777344 1337.36328,507.011719 C1336.89453,506.246094 1336.31055,505.65625 1335.61133,505.242188 C1334.91211,504.828125 1334.09375,504.621094 1333.15625,504.621094 C1332.16406,504.621094 1331.31055,504.828125 1330.5957,505.242188 C1329.88086,505.65625 1329.29492,506.246094 1328.83789,507.011719 C1328.38086,507.777344 1328.04297,508.699219 1327.82422,509.777344 C1327.60547,510.855469 1327.49609,512.058594 1327.49609,513.386719 C1327.49609,514.714844 1327.60547,515.923828 1327.82422,517.013672 C1328.04297,518.103516 1328.38086,519.035156 1328.83789,519.808594 C1329.29492,520.582031 1329.87891,521.179688 1330.58984,521.601562 C1331.30078,522.023438 1332.14844,522.234375 1333.13281,522.234375 Z M1333.13281,520.945312 C1332.55469,520.945312 1332.06445,520.775391 1331.66211,520.435547 C1331.25977,520.095703 1330.93555,519.603516 1330.68945,518.958984 C1330.44336,518.314453 1330.26562,517.525391 1330.15625,516.591797 C1330.04688,515.658203 1329.99219,514.597656 1329.99219,513.410156 C1329.99219,512.222656 1330.04688,511.164062 1330.15625,510.234375 C1330.26562,509.304688 1330.44531,508.519531 1330.69531,507.878906 C1330.94531,507.238281 1331.27148,506.751953 1331.67383,506.419922 C1332.07617,506.087891 1332.57031,505.921875 1333.15625,505.921875 C1333.73438,505.921875 1334.2207,506.087891 1334.61523,506.419922 C1335.00977,506.751953 1335.33008,507.238281 1335.57617,507.878906 C1335.82227,508.519531 1335.99805,509.304688 1336.10352,510.234375 C1336.20898,511.164062 1336.26172,512.222656 1336.26172,513.410156 C1336.26172,514.597656 1336.20898,515.658203 1336.10352,516.591797 C1335.99805,517.525391 1335.82227,518.314453 1335.57617,518.958984 C1335.33008,519.603516 1335.00781,520.095703 1334.60938,520.435547 C1334.21094,520.775391 1333.71875,520.945312 1333.13281,520.945312 Z M1351.28516,522 L1351.28516,520.992188 L1350.11328,520.992188 C1349.83984,520.992188 1349.58398,520.972656 1349.3457,520.933594 C1349.10742,520.894531 1348.89844,520.814453 1348.71875,520.693359 C1348.53906,520.572266 1348.39844,520.398438 1348.29688,520.171875 C1348.19531,519.945312 1348.14453,519.644531 1348.14453,519.269531 L1348.14453,519.269531 L1348.14453,504.773438 L1346.60938,504.773438 L1344.92188,506.015625 C1344.52344,506.304688 1344.16211,506.552734 1343.83789,506.759766 C1343.51367,506.966797 1343.21289,507.142578 1342.93555,507.287109 C1342.6582,507.431641 1342.39648,507.548828 1342.15039,507.638672 C1341.9043,507.728516 1341.66016,507.804688 1341.41797,507.867188 C1341.41797,508.25 1341.53125,508.560547 1341.75781,508.798828 C1341.98438,509.037109 1342.27344,509.15625 1342.625,509.15625 C1342.85938,509.15625 1343.0957,509.095703 1343.33398,508.974609 C1343.57227,508.853516 1343.81641,508.683594 1344.06641,508.464844 C1344.31641,508.246094 1344.57812,507.984375 1344.85156,507.679688 C1345.125,507.375 1345.41406,507.035156 1345.71875,506.660156 L1345.71875,506.660156 L1345.71875,519.269531 C1345.71875,519.644531 1345.66602,519.945312 1345.56055,520.171875 C1345.45508,520.398438 1345.31445,520.572266 1345.13867,520.693359 C1344.96289,520.814453 1344.75586,520.894531 1344.51758,520.933594 C1344.2793,520.972656 1344.02344,520.992188 1343.75,520.992188 L1343.75,520.992188 L1342.14453,520.992188 L1342.14453,522 L1351.28516,522 Z M1359.61719,522 L1365.52344,505.582031 L1365.52344,504.890625 L1354.78906,504.890625 L1354.67188,509.226562 L1355.67969,509.226562 L1355.77344,508.03125 C1355.84375,507.21875 1356.30859,506.8125 1357.16797,506.8125 L1357.16797,506.8125 L1363.47266,506.8125 L1357.8125,522 L1359.61719,522 Z M1379.75,516.363281 L1379.75,514.558594 L1373.50391,514.558594 L1373.50391,516.363281 L1379.75,516.363281 Z M1398.125,522 L1398.24219,517.851562 L1397.23438,517.851562 L1397.14062,518.285156 C1397.08594,518.519531 1397.01758,518.744141 1396.93555,518.958984 C1396.85352,519.173828 1396.73828,519.363281 1396.58984,519.527344 C1396.44141,519.691406 1396.25,519.824219 1396.01562,519.925781 C1395.78125,520.027344 1395.48438,520.078125 1395.125,520.078125 L1395.125,520.078125 L1389.58203,520.078125 L1393.63672,515.589844 C1394.26953,514.894531 1394.83398,514.246094 1395.33008,513.644531 C1395.82617,513.042969 1396.24609,512.462891 1396.58984,511.904297 C1396.93359,511.345703 1397.19531,510.800781 1397.375,510.269531 C1397.55469,509.738281 1397.64453,509.191406 1397.64453,508.628906 C1397.64453,508.019531 1397.5332,507.46875 1397.31055,506.976562 C1397.08789,506.484375 1396.76562,506.064453 1396.34375,505.716797 C1395.92188,505.369141 1395.41016,505.099609 1394.80859,504.908203 C1394.20703,504.716797 1393.52734,504.621094 1392.76953,504.621094 C1391.99609,504.621094 1391.31641,504.701172 1390.73047,504.861328 C1390.14453,505.021484 1389.6543,505.246094 1389.25977,505.535156 C1388.86523,505.824219 1388.56836,506.166016 1388.36914,506.560547 C1388.16992,506.955078 1388.07031,507.382812 1388.07031,507.84375 C1388.07031,508.148438 1388.12305,508.400391 1388.22852,508.599609 C1388.33398,508.798828 1388.48047,508.958984 1388.66797,509.080078 C1388.85547,509.201172 1389.07422,509.285156 1389.32422,509.332031 C1389.57422,509.378906 1389.84375,509.402344 1390.13281,509.402344 C1390.13281,508.925781 1390.16797,508.472656 1390.23828,508.042969 C1390.30859,507.613281 1390.44141,507.234375 1390.63672,506.90625 C1390.83203,506.578125 1391.09961,506.316406 1391.43945,506.121094 C1391.7793,505.925781 1392.22266,505.828125 1392.76953,505.828125 C1393.19141,505.828125 1393.55664,505.900391 1393.86523,506.044922 C1394.17383,506.189453 1394.42773,506.396484 1394.62695,506.666016 C1394.82617,506.935547 1394.97461,507.255859 1395.07227,507.626953 C1395.16992,507.998047 1395.21875,508.414062 1395.21875,508.875 C1395.21875,509.421875 1395.16016,509.943359 1395.04297,510.439453 C1394.92578,510.935547 1394.73438,511.443359 1394.46875,511.962891 C1394.20312,512.482422 1393.85352,513.035156 1393.41992,513.621094 C1392.98633,514.207031 1392.44922,514.871094 1391.80859,515.613281 L1391.80859,515.613281 L1387.80078,520.242188 L1387.80078,522 L1398.125,522 Z M1406.71484,522.234375 C1407.66016,522.234375 1408.48438,522.023438 1409.1875,521.601562 C1409.89062,521.179688 1410.47656,520.582031 1410.94531,519.808594 C1411.41406,519.035156 1411.76367,518.105469 1411.99414,517.019531 C1412.22461,515.933594 1412.33984,514.730469 1412.33984,513.410156 C1412.33984,512.074219 1412.22461,510.865234 1411.99414,509.783203 C1411.76367,508.701172 1411.41406,507.777344 1410.94531,507.011719 C1410.47656,506.246094 1409.89258,505.65625 1409.19336,505.242188 C1408.49414,504.828125 1407.67578,504.621094 1406.73828,504.621094 C1405.74609,504.621094 1404.89258,504.828125 1404.17773,505.242188 C1403.46289,505.65625 1402.87695,506.246094 1402.41992,507.011719 C1401.96289,507.777344 1401.625,508.699219 1401.40625,509.777344 C1401.1875,510.855469 1401.07812,512.058594 1401.07812,513.386719 C1401.07812,514.714844 1401.1875,515.923828 1401.40625,517.013672 C1401.625,518.103516 1401.96289,519.035156 1402.41992,519.808594 C1402.87695,520.582031 1403.46094,521.179688 1404.17188,521.601562 C1404.88281,522.023438 1405.73047,522.234375 1406.71484,522.234375 Z M1406.71484,520.945312 C1406.13672,520.945312 1405.64648,520.775391 1405.24414,520.435547 C1404.8418,520.095703 1404.51758,519.603516 1404.27148,518.958984 C1404.02539,518.314453 1403.84766,517.525391 1403.73828,516.591797 C1403.62891,515.658203 1403.57422,514.597656 1403.57422,513.410156 C1403.57422,512.222656 1403.62891,511.164062 1403.73828,510.234375 C1403.84766,509.304688 1404.02734,508.519531 1404.27734,507.878906 C1404.52734,507.238281 1404.85352,506.751953 1405.25586,506.419922 C1405.6582,506.087891 1406.15234,505.921875 1406.73828,505.921875 C1407.31641,505.921875 1407.80273,506.087891 1408.19727,506.419922 C1408.5918,506.751953 1408.91211,507.238281 1409.1582,507.878906 C1409.4043,508.519531 1409.58008,509.304688 1409.68555,510.234375 C1409.79102,511.164062 1409.84375,512.222656 1409.84375,513.410156 C1409.84375,514.597656 1409.79102,515.658203 1409.68555,516.591797 C1409.58008,517.525391 1409.4043,518.314453 1409.1582,518.958984 C1408.91211,519.603516 1408.58984,520.095703 1408.19141,520.435547 C1407.79297,520.775391 1407.30078,520.945312 1406.71484,520.945312 Z M1424.86719,522 L1424.86719,520.992188 L1423.69531,520.992188 C1423.42188,520.992188 1423.16602,520.972656 1422.92773,520.933594 C1422.68945,520.894531 1422.48047,520.814453 1422.30078,520.693359 C1422.12109,520.572266 1421.98047,520.398438 1421.87891,520.171875 C1421.77734,519.945312 1421.72656,519.644531 1421.72656,519.269531 L1421.72656,519.269531 L1421.72656,504.773438 L1420.19141,504.773438 L1418.50391,506.015625 C1418.10547,506.304688 1417.74414,506.552734 1417.41992,506.759766 C1417.0957,506.966797 1416.79492,507.142578 1416.51758,507.287109 C1416.24023,507.431641 1415.97852,507.548828 1415.73242,507.638672 C1415.48633,507.728516 1415.24219,507.804688 1415,507.867188 C1415,508.25 1415.11328,508.560547 1415.33984,508.798828 C1415.56641,509.037109 1415.85547,509.15625 1416.20703,509.15625 C1416.44141,509.15625 1416.67773,509.095703 1416.91602,508.974609 C1417.1543,508.853516 1417.39844,508.683594 1417.64844,508.464844 C1417.89844,508.246094 1418.16016,507.984375 1418.43359,507.679688 C1418.70703,507.375 1418.99609,507.035156 1419.30078,506.660156 L1419.30078,506.660156 L1419.30078,519.269531 C1419.30078,519.644531 1419.24805,519.945312 1419.14258,520.171875 C1419.03711,520.398438 1418.89648,520.572266 1418.7207,520.693359 C1418.54492,520.814453 1418.33789,520.894531 1418.09961,520.933594 C1417.86133,520.972656 1417.60547,520.992188 1417.33203,520.992188 L1417.33203,520.992188 L1415.72656,520.992188 L1415.72656,522 L1424.86719,522 Z M1432.28516,522.269531 C1433.05859,522.269531 1433.75781,522.150391 1434.38281,521.912109 C1435.00781,521.673828 1435.56055,521.337891 1436.04102,520.904297 C1436.52148,520.470703 1436.93555,519.957031 1437.2832,519.363281 C1437.63086,518.769531 1437.91602,518.117188 1438.13867,517.40625 C1438.36133,516.695312 1438.52539,515.939453 1438.63086,515.138672 C1438.73633,514.337891 1438.78906,513.519531 1438.78906,512.683594 C1438.78906,511.277344 1438.65039,510.066406 1438.37305,509.050781 C1438.0957,508.035156 1437.70703,507.199219 1437.20703,506.542969 C1436.70703,505.886719 1436.11719,505.402344 1435.4375,505.089844 C1434.75781,504.777344 1434.01172,504.621094 1433.19922,504.621094 C1432.39453,504.621094 1431.67383,504.767578 1431.03711,505.060547 C1430.40039,505.353516 1429.86133,505.759766 1429.41992,506.279297 C1428.97852,506.798828 1428.64062,507.419922 1428.40625,508.142578 C1428.17188,508.865234 1428.05469,509.660156 1428.05469,510.527344 C1428.05469,511.339844 1428.16992,512.050781 1428.40039,512.660156 C1428.63086,513.269531 1428.95508,513.777344 1429.37305,514.183594 C1429.79102,514.589844 1430.29102,514.894531 1430.87305,515.097656 C1431.45508,515.300781 1432.09375,515.402344 1432.78906,515.402344 C1433.21094,515.402344 1433.59961,515.357422 1433.95508,515.267578 C1434.31055,515.177734 1434.63477,515.056641 1434.92773,514.904297 C1435.2207,514.751953 1435.48242,514.578125 1435.71289,514.382812 C1435.94336,514.1875 1436.14453,513.984375 1436.31641,513.773438 C1436.23828,516.179688 1435.88281,517.976562 1435.25,519.164062 C1434.61719,520.351562 1433.63672,520.945312 1432.30859,520.945312 C1431.93359,520.945312 1431.59766,520.894531 1431.30078,520.792969 C1431.00391,520.691406 1430.74023,520.552734 1430.50977,520.376953 C1430.2793,520.201172 1430.08398,519.998047 1429.92383,519.767578 C1429.76367,519.537109 1429.62891,519.296875 1429.51953,519.046875 C1429.33984,519.109375 1429.17578,519.242188 1429.02734,519.445312 C1428.87891,519.648438 1428.80469,519.898438 1428.80469,520.195312 C1428.80469,520.445312 1428.85938,520.695312 1428.96875,520.945312 C1429.07812,521.195312 1429.26367,521.417969 1429.52539,521.613281 C1429.78711,521.808594 1430.14258,521.966797 1430.5918,522.087891 C1431.04102,522.208984 1431.60547,522.269531 1432.28516,522.269531 Z M1433.31641,513.984375 C1432.85547,513.984375 1432.45117,513.916016 1432.10352,513.779297 C1431.75586,513.642578 1431.46484,513.425781 1431.23047,513.128906 C1430.99609,512.832031 1430.82031,512.449219 1430.70312,511.980469 C1430.58594,511.511719 1430.52734,510.949219 1430.52734,510.292969 C1430.52734,508.878906 1430.75977,507.800781 1431.22461,507.058594 C1431.68945,506.316406 1432.34766,505.945312 1433.19922,505.945312 C1433.66016,505.945312 1434.08008,506.0625 1434.45898,506.296875 C1434.83789,506.53125 1435.16406,506.894531 1435.4375,507.386719 C1435.71094,507.878906 1435.92578,508.505859 1436.08203,509.267578 C1436.23828,510.029297 1436.32422,510.9375 1436.33984,511.992188 L1436.33984,511.992188 L1436.33984,512.039062 C1436.23047,512.296875 1436.08398,512.542969 1435.90039,512.777344 C1435.7168,513.011719 1435.5,513.216797 1435.25,513.392578 C1435,513.568359 1434.71289,513.708984 1434.38867,513.814453 C1434.06445,513.919922 1433.70703,513.976562 1433.31641,513.984375 Z" transform="rotate(90 918.504 -395.555)"/>
</svg>
